# xmcd
#
# Track frame offsets:
# 150
# 15906
# 34485
# 50722
# 66096
# 85327
# 106199
# 122728
# 149372
# 167703
# 186685
# 206841
# 228885
# 248956
# 271418
# 287485
# 319254
# 338073
#
# Disc length: 4756 seconds
#
# Revision: 1
# Processed by: cddbd v1.4PL0 Copyright (c) Steve Scherf et al.
# Submitted via: CedeCatalogueitor 2.5 http://usuarios.lycos.es/kakasboy
#
DISCID=0f129212
DTITLE=Barry White - The Ultimate Collection
DYEAR=1999
DGENRE=
TTITLE0=You're The First, The Last, My Everything
TTITLE1=Can't Get Enough Of Love Babe
TTITLE2=Let The Music Play
TTITLE3=Don't Make Me Wait Too Long
TTITLE4=I'lldo For You Anything You Want Me To
TTITLE5=Sho' You Right
TTITLE6=What Am I Gonna Do With You
TTITLE7=Come On
TTITLE8=I'm Gonna Love You Just A Little More Babe
TTITLE9=Never, Never Gonna Give You Up
TTITLE10=Baby We Better Try And Get It Together
TTITLE11=Just The Way You Are
TTITLE12=I'm Qualified To Satisfy You
TTITLE13=Dark And Lovely (you Over There) "radio Edit"
TTITLE14=You See The Trouble Whith Me
TTITLE15=It's Ecstasy When You Lay Down Next To Me
TTITLE16=The Right Night
TTITLE17=Loves Theme
EXTD=
EXTT0=
EXTT1=
EXTT2=
EXTT3=
EXTT4=
EXTT5=
EXTT6=
EXTT7=
EXTT8=
EXTT9=
EXTT10=
EXTT11=
EXTT12=
EXTT13=
EXTT14=
EXTT15=
EXTT16=
EXTT17=
PLAYORDER=
